<svg width="22" height="22" viewBox="0 0 22 22" fill="none" xmlns="http://www.w3.org/2000/svg">
<path d="M11.3536 5.6842C8.33202 5.6842 5.89476 8.02449 5.89476 10.9259C5.89476 13.8273 8.33202 16.1676 11.3536 16.1676C14.3753 16.1676 16.8125 13.8273 16.8125 10.9259C16.8125 8.02449 14.3753 5.6842 11.3536 5.6842ZM11.3536 14.3337C9.40099 14.3337 7.80466 12.8054 7.80466 10.9259C7.80466 9.04637 9.39624 7.51811 11.3536 7.51811C13.3111 7.51811 14.9026 9.04637 14.9026 10.9259C14.9026 12.8054 13.3063 14.3337 11.3536 14.3337ZM18.3091 5.46979C18.3091 6.14952 17.739 6.69239 17.0358 6.69239C16.3279 6.69239 15.7626 6.14496 15.7626 5.46979C15.7626 4.79462 16.3327 4.24718 17.0358 4.24718C17.739 4.24718 18.3091 4.79462 18.3091 5.46979ZM21.9246 6.71064C21.8438 5.0729 21.4542 3.62219 20.2047 2.42696C18.96 1.23172 17.4492 0.857641 15.7436 0.775525C13.9857 0.679724 8.71685 0.679724 6.95899 0.775525C5.25813 0.853079 3.74732 1.22716 2.49781 2.42239C1.2483 3.61763 0.863471 5.06833 0.777953 6.70608C0.678182 8.39401 0.678182 13.4532 0.777953 15.1412C0.85872 16.7789 1.2483 18.2296 2.49781 19.4248C3.74732 20.6201 5.25338 20.9942 6.95899 21.0763C8.71685 21.1721 13.9857 21.1721 15.7436 21.0763C17.4492 20.9987 18.96 20.6246 20.2047 19.4248C21.4495 18.2296 21.8391 16.7789 21.9246 15.1412C22.0244 13.4532 22.0244 8.39857 21.9246 6.71064ZM19.6536 16.9523C19.283 17.8464 18.5656 18.5353 17.6297 18.8956C16.2282 19.4294 12.9025 19.3062 11.3536 19.3062C9.80483 19.3062 6.47439 19.4248 5.0776 18.8956C4.1464 18.5398 3.429 17.851 3.05368 16.9523C2.49781 15.6065 2.62609 12.4131 2.62609 10.9259C2.62609 9.4387 2.50256 6.24076 3.05368 4.89954C3.42425 4.0054 4.14165 3.31654 5.0776 2.95614C6.47914 2.42239 9.80483 2.54557 11.3536 2.54557C12.9025 2.54557 16.2329 2.42696 17.6297 2.95614C18.5609 3.31198 19.2783 4.00083 19.6536 4.89954C20.2095 6.24532 20.0812 9.4387 20.0812 10.9259C20.0812 12.4131 20.2095 15.611 19.6536 16.9523Z" fill="#545776"/>
</svg>
