<svg width="22" height="22" viewBox="0 0 22 22" fill="none" xmlns="http://www.w3.org/2000/svg">
<path d="M5.3165 21.1481H1.07793V7.49841H5.3165V21.1481ZM3.19494 5.63646C1.83958 5.63646 0.740234 4.51382 0.740234 3.15843C0.740234 2.50739 0.998854 1.88301 1.4592 1.42266C1.91955 0.9623 2.54391 0.703674 3.19494 0.703674C3.84596 0.703674 4.47033 0.9623 4.93067 1.42266C5.39102 1.88301 5.64964 2.50739 5.64964 3.15843C5.64964 4.51382 4.54984 5.63646 3.19494 5.63646ZM21.1801 21.1481H16.9507V14.5035C16.9507 12.92 16.9187 10.8892 14.747 10.8892C12.5433 10.8892 12.2056 12.6096 12.2056 14.3894V21.1481H7.97154V7.49841H12.0367V9.36036H12.096C12.6619 8.28791 14.0442 7.15614 16.1064 7.15614C20.3961 7.15614 21.1847 9.981 21.1847 13.6501V21.1481H21.1801Z" fill="#545776"/>
</svg>
