<svg width="21" height="20" viewBox="0 0 21 20" fill="none" xmlns="http://www.w3.org/2000/svg">
<path d="M18.5647 5.22607C18.5776 5.43104 18.5776 5.63605 18.5776 5.84101C18.5776 12.0928 14.3616 19.2963 6.65599 19.2963C4.28203 19.2963 2.07674 18.5203 0.22168 17.1733C0.558974 17.2172 0.883252 17.2319 1.23352 17.2319C3.19233 17.2319 4.99552 16.4852 6.43546 15.2114C4.59337 15.1675 3.04965 13.8058 2.51778 11.9318C2.77725 11.9756 3.03668 12.0049 3.30912 12.0049C3.68531 12.0049 4.06154 11.9464 4.41177 11.8439C2.49186 11.4046 1.05188 9.50131 1.05188 7.20264V7.1441C1.60967 7.49549 2.25835 7.7151 2.94583 7.74435C1.81723 6.89514 1.07783 5.44568 1.07783 3.80586C1.07783 2.9274 1.28535 2.12213 1.6486 1.41935C3.71122 4.28903 6.81165 6.16307 10.2882 6.36808C10.2234 6.01669 10.1844 5.6507 10.1844 5.28466C10.1844 2.67849 12.0525 0.555542 14.3745 0.555542C15.5809 0.555542 16.6706 1.12655 17.436 2.04894C18.383 1.84398 19.291 1.44864 20.0954 0.906933C19.784 2.00505 19.1224 2.92745 18.2533 3.51305C19.0965 3.41061 19.9137 3.14701 20.6661 2.78102C20.0954 3.71802 19.3819 4.55254 18.5647 5.22607Z" fill="#545776"/>
</svg>
