<svg width="25" height="25" viewBox="0 0 25 25" fill="none" xmlns="http://www.w3.org/2000/svg">
<path d="M0 25V21.875C0 18.4375 5.625 15.625 12.5 15.625C19.375 15.625 25 18.4375 25 21.875V25H0ZM6.25 6.24999C6.25 5.01386 6.61656 3.80547 7.30331 2.77766C7.99007 1.74985 8.96619 0.948777 10.1082 0.475729C11.2503 0.00268151 12.5069 -0.121054 13.7193 0.120104C14.9317 0.361262 16.0453 0.956489 16.9194 1.83057C17.7935 2.70465 18.3888 3.81829 18.6299 5.03067C18.8711 6.24305 18.7473 7.49972 18.2742 8.64176C17.8012 9.7838 17.0001 10.7599 15.9723 11.4467C14.9445 12.1334 13.7361 12.5 12.5 12.5C10.8424 12.5 9.25268 11.8415 8.08058 10.6694C6.90848 9.49731 6.25 7.9076 6.25 6.24999Z" fill="#545776"/>
</svg>
